<?xml version="1.0" encoding="utf-8"?>
<!-- Generator: Adobe Illustrator 24.0.1, SVG Export Plug-In . SVG Version: 6.00 Build 0)  -->
<svg version="1.1" id="Layer_1" xmlns="http://www.w3.org/2000/svg" xmlns:xlink="http://www.w3.org/1999/xlink" x="0px" y="0px"
	 viewBox="0 0 197.6 94.4" style="enable-background:new 0 0 197.6 94.4;" xml:space="preserve">
<style type="text/css">
	.st0{fill:#F0FFFF;stroke:#4B92DB;stroke-width:3.3885;stroke-miterlimit:10.0003;}
	.st1{fill:#007FFF;stroke:#F0FFFF;stroke-width:1.9419;stroke-miterlimit:10.0003;}
	.st2{display:none;}
	.st3{display:inline;}
	.st4{font-family:'ArialRoundedMTBold';}
	.st5{font-size:18px;}
	.st6{display:inline;fill:#4B92DB;}
	.st7{fill:#4B92DB;stroke:#4B92DB;stroke-width:0.7421;stroke-miterlimit:10.0003;}
	.st8{font-size:16.2945px;}
</style>
<ellipse transform="matrix(0.4628 -0.8865 0.8865 0.4628 -13.2252 63.0708)" class="st0" cx="45.4" cy="42.4" rx="24.1" ry="24.3"/>
<ellipse transform="matrix(0.4628 -0.8865 0.8865 0.4628 -32.5061 37.7533)" class="st1" cx="14.9" cy="45.7" rx="13.8" ry="14"/>
<ellipse transform="matrix(0.4628 -0.8865 0.8865 0.4628 -31.3086 89.46)" class="st1" cx="58.2" cy="70.6" rx="13.8" ry="14"/>
<ellipse transform="matrix(0.4628 -0.8865 0.8865 0.4628 17.7359 59.5893)" class="st1" cx="58" cy="15.2" rx="13.8" ry="14"/>
<g id="Layer_4" class="st2">
</g>
<g id="Layer_2_1_" class="st2">
	<text transform="matrix(1 0 0 1 56.9185 15.5519)" class="st3 st4 st5">WE</text>
	<text transform="matrix(1 0 0 1 45.7653 53.2448)" class="st3 st4 st5">TEAM</text>
	<text transform="matrix(1 0 0 1 42.5485 90.5792)" class="st3 st4 st5">WORK</text>
	<circle class="st6" cx="72.8" cy="51.6" r="17.6"/>
	<circle class="st6" cx="128.7" cy="46.2" r="17.6"/>
</g>
<ellipse transform="matrix(0.4628 -0.8865 0.8865 0.4628 -13.2252 63.0708)" class="st7" cx="45.4" cy="42.4" rx="5.3" ry="5.3"/>
<text transform="matrix(1 0 0 1 84.168 49.132)" class="st4 st8">WeTeam.Work</text>
</svg>
